<?xml version="1.0" encoding="utf-8"?>
<!-- Generator: Adobe Illustrator 21.0.0, SVG Export Plug-In . SVG Version: 6.00 Build 0)  -->
<svg version="1.1" id="Calque_1" xmlns="http://www.w3.org/2000/svg" xmlns:xlink="http://www.w3.org/1999/xlink" x="0px" y="0px"
	 viewBox="0 0 325.3 42.5" style="enable-background:new 0 0 325.3 42.5;" xml:space="preserve">
<style type="text/css">
	.st0{fill:none;}
	.st1{fill:#E60028;}
	.st2{fill:#FFFFFF;}
</style>
<line class="st0" x1="-20" y1="51.6" x2="-20" y2="-10"/>
<path class="st0" d="M294.6-10"/>
<g>
	<path d="M1.4,10.9c0-4.9,3.8-8.4,8.9-8.4c3,0,5.4,1.1,7,3.1l-2.9,2.7c-1.1-1.2-2.3-1.9-3.8-1.9c-2.7,0-4.5,1.9-4.5,4.6
		s1.9,4.6,4.5,4.6c1.6,0,2.8-0.7,3.8-1.9l2.9,2.7c-1.6,1.9-4,3.1-7,3.1C5.2,19.4,1.4,15.8,1.4,10.9z"/>
	<path d="M23.5,4.3c0,0.6-0.1,1.1-0.7,2.7l-1.5,3.4h-2.7l1.1-3.8c-0.8-0.4-1.3-1.1-1.3-2.3c0-1.6,1.1-2.6,2.7-2.6
		C22.4,1.6,23.5,2.7,23.5,4.3z"/>
	<path d="M38.6,15.5V19h-13V2.8h12.7v3.5h-8.1V9h7.2v3.4h-7.2v3L38.6,15.5L38.6,15.5z"/>
	<path d="M39.9,17.5l1.5-3.4c1.4,1,3.4,1.6,5.4,1.6c1.9,0,2.7-0.5,2.7-1.3c0-2.6-9.2-0.7-9.2-6.7c0-2.9,2.4-5.2,7.2-5.2
		c2.1,0,4.2,0.4,5.9,1.4L52,7.4c-1.6-0.8-3.1-1.2-4.5-1.2c-1.9,0-2.7,0.6-2.7,1.5c0,2.5,9.2,0.6,9.2,6.6c0,2.8-2.4,5.2-7.2,5.2
		C44.1,19.4,41.4,18.6,39.9,17.5z"/>
	<path d="M59.8,6.5h-4.9V2.9h14.5v3.6h-4.9V19h-4.6L59.8,6.5L59.8,6.5z"/>
	<path d="M93.6,2.8l-7,16.2h-4.5L75.2,2.8h4.9l4.4,10.5L89,2.8H93.6z"/>
	<path d="M93,10.9c0-4.9,3.8-8.4,9-8.4s9,3.5,9,8.4s-3.8,8.4-9,8.4C96.8,19.4,93,15.8,93,10.9z M106.3,10.9c0-2.8-1.9-4.6-4.4-4.6
		s-4.4,1.9-4.4,4.6s1.9,4.6,4.4,4.6C104.4,15.6,106.3,13.7,106.3,10.9z"/>
	<path d="M113.6,11.8V2.9h4.6v8.8c0,2.7,1.1,3.9,3.1,3.9c1.9,0,3.1-1.1,3.1-3.9V2.9h4.5v9c0,4.9-2.8,7.5-7.6,7.5
		C116.4,19.4,113.6,16.6,113.6,11.8z"/>
	<path d="M130.6,17.5l1.5-3.4c1.4,1,3.4,1.6,5.4,1.6c1.9,0,2.7-0.5,2.7-1.3c0-2.6-9.2-0.7-9.2-6.7c0-2.9,2.4-5.2,7.2-5.2
		c2.1,0,4.2,0.4,5.9,1.4l-1.4,3.4c-1.6-0.8-3.1-1.2-4.5-1.2c-1.9,0-2.7,0.6-2.7,1.5c0,2.5,9.2,0.6,9.2,6.6c0,2.8-2.4,5.2-7.2,5.2
		C134.8,19.4,132.2,18.6,130.6,17.5z"/>
	<path d="M36.9,23.2h4.6v12.5h7.8v3.6H37L36.9,23.2L36.9,23.2z"/>
	<path d="M53.6,24.6c0,0.6-0.1,1.1-0.7,2.7l-1.5,3.4h-2.7l1.1-3.8c-0.8-0.4-1.3-1.1-1.3-2.3c0-1.6,1.1-2.6,2.7-2.6
		C52.6,21.9,53.6,23,53.6,24.6z"/>
	<path d="M65.3,36.3h-6.9l-1.2,3.2h-4.7l7.2-16.2h4.5l7.2,16.2h-4.8L65.3,36.3z M64,32.8l-2.1-5.2l-2.1,5.2H64z"/>
	<path d="M86.3,23.2l-7,16.2h-4.5l-6.9-16.2h4.9l4.4,10.5l4.5-10.5H86.3z"/>
	<path d="M100.9,35.8v3.5h-13V23.2h12.7v3.5h-8.2v2.7h7.2v3.4h-7.2v3L100.9,35.8L100.9,35.8z"/>
	<path d="M118.8,23.2v16.2H115l-7.2-8.7v8.7h-4.5V23.2h3.8l7.2,8.7v-8.7H118.8z"/>
	<path d="M121.9,23.2h4.6v16.2h-4.6V23.2z"/>
	<path d="M136.7,35h-2.5v4.3h-4.6V23.2h7.4c4.4,0,7.2,2.3,7.2,6c0,2.4-1.1,4.2-3.2,5.1l3.5,5.1h-4.9L136.7,35z M136.7,26.8h-2.6v4.8
		h2.6c1.9,0,2.8-0.9,2.8-2.4C139.6,27.7,138.7,26.8,136.7,26.8z"/>
</g>
<g>
	<rect x="154.2" y="8.5" class="st1" width="25" height="12.8"/>
	<rect x="154.2" y="21" width="25" height="12.5"/>
	<g>
		<g>
			<g>
				<g>
					<g>
						<g>
							<g>
								<rect x="158.5" y="20.3" class="st2" width="16.2" height="1.5"/>
							</g>
						</g>
					</g>
				</g>
			</g>
		</g>
	</g>
	<g>
		<g>
			<path d="M193.6,13.4c-1.1-0.4-2.1-0.7-3.1-0.7c-1.4,0-2.1,0.3-2.1,0.9c0,1.6,6.4,0.3,6.4,3.6c0,1.4-1.3,2.5-3.9,2.5
				c-1.6,0-2.7-0.4-4.1-1.1l0.5-1.2c1.2,0.7,2.4,1,3.6,1c1.6,0,2.4-0.4,2.4-1.1c0-1.7-6.4-0.4-6.4-3.5c0-1.3,1.3-2.3,3.6-2.3
				c1.4,0,2.6,0.3,3.7,0.9L193.6,13.4z"/>
			<path d="M200.6,19.7c-2.6,0-4.6-1.7-4.6-4.2c0-2.5,2.1-4.2,4.6-4.2c2.6,0,4.6,1.7,4.6,4.2S203.2,19.7,200.6,19.7z M200.6,12.6
				c-1.9,0-3.1,1.2-3.1,2.8c0,1.7,1.2,2.8,3.1,2.8s3.1-1.2,3.1-2.8S202.6,12.6,200.6,12.6z"/>
			<path d="M211.4,19.7c-2.6,0-4.7-1.7-4.7-4.2c0-2.5,2-4.2,4.7-4.2c1.6,0,2.6,0.4,3.7,1.1l-0.8,1.1c-0.7-0.5-1.7-1-2.9-1
				c-1.9,0-3.2,1.2-3.2,2.8c0,1.7,1.2,2.8,3.2,2.8c1.2,0,2.2-0.4,2.9-1l0.8,1.1C214.1,19.2,212.9,19.7,211.4,19.7z"/>
			<path d="M216.8,19.5v-7.9h1.5v7.9H216.8z"/>
			<path d="M220.4,19.5v-7.9h7.2v1.3h-5.7v1.9h4.5v1.3h-4.5v2.1h6v1.3L220.4,19.5L220.4,19.5z"/>
			<path d="M233.4,12.8v6.6h-1.5v-6.6h-3.3v-1.3h7.9v1.3H233.4z"/>
			<path d="M237.9,19.5v-7.9h7.2v1.3h-5.7v1.9h4.5v1.3h-4.5v2.1h6v1.3L237.9,19.5L237.9,19.5z"/>
			<path d="M254.5,18.3c0.8,0,1.7-0.2,2.3-0.4v-2.3h1.4v3.1c-1,0.7-2.4,1.1-3.8,1.1c-2.6,0-4.7-1.7-4.7-4.2c0-2.5,2-4.2,4.7-4.2
				c1.5,0,2.6,0.4,3.7,1.1l-0.8,1.1c-0.7-0.5-1.7-1-2.9-1c-1.9,0-3.2,1.2-3.2,2.8C251.3,17.1,252.5,18.3,254.5,18.3z"/>
			<path d="M260.3,19.5v-7.9h7.2v1.3h-5.7v1.9h4.5v1.3h-4.5v2.1h6v1.3L260.3,19.5L260.3,19.5z"/>
			<path d="M270.8,19.5h-1.4v-7.9h1.5l5.2,6l0,0c-0.1-1.5-0.1-2.7-0.1-3.9v-2.1h1.4v7.9h-1.5l-5.1-6l0,0c0.1,1.1,0.1,3.3,0.1,3.9
				L270.8,19.5L270.8,19.5z"/>
			<path d="M279.7,19.5v-7.9h7.2v1.3h-5.7v1.9h4.5v1.3h-4.5v2.1h6v1.3L279.7,19.5L279.7,19.5z"/>
			<path d="M292.6,16.6h-2.4v2.9h-1.5v-7.9h5.1c1.7,0,2.7,1.1,2.7,2.6c0,1.4-1.1,2.3-2.3,2.5l2.4,3h-1.9L292.6,16.6z M293.8,15.3
				c0.9,0,1.4-0.4,1.4-1.1c0-0.8-0.4-1.2-1.3-1.2h-3.6v2.4L293.8,15.3L293.8,15.3z"/>
			<path d="M299.8,17.6l-0.9,1.9h-1.6l3.9-7.9h1.6l3.9,7.9h-1.6l-0.9-1.9H299.8z M300.4,16.2h3.1l-1.5-3.2L300.4,16.2z"/>
			<path d="M307.7,19.5v-7.9h1.5v6.6h5.3v1.3H307.7z"/>
			<path d="M315.5,19.5v-7.9h7.2v1.3H317v1.9h4.5v1.3H317v2.1h6v1.3L315.5,19.5L315.5,19.5z"/>
		</g>
		<g>
			<path d="M194.5,30.5v-1.8c0-0.7,0-2.7,0.1-3.9l0,0l-3.3,4.1l-3.3-4.1l0,0c0,1.1,0,3.3,0,3.9v1.8h-1.4v-7.9h1.6l3.2,4.1l3.2-4.1
				h1.5v7.9H194.5z"/>
			<path d="M199.6,28.7l-0.9,1.9h-1.6l3.8-7.9h1.5l3.9,7.9h-1.6l-0.9-1.9H199.6z M200.2,27.4h3l-1.5-3.2L200.2,27.4z"/>
			<path d="M211.5,22.7c2.5,0,4.1,1.6,4.1,4c0,2.2-1.8,4-3.9,4h-4.3v-7.9L211.5,22.7L211.5,22.7z M211.5,29.2c1.7,0,2.6-1.1,2.6-2.6
				c0-1.5-0.9-2.6-2.6-2.6h-2.6v5.2L211.5,29.2L211.5,29.2z"/>
			<path d="M218.5,28.7l-0.9,1.9H216l3.8-7.9h1.5l3.9,7.9h-1.6l-0.9-1.9H218.5z M219.1,27.4h3l-1.5-3.2L219.1,27.4z"/>
			<path d="M230.6,29.4c0.8,0,1.6-0.2,2.2-0.4v-2.3h1.4v3.1c-1,0.7-2.4,1.1-3.7,1.1c-2.6,0-4.6-1.7-4.6-4.1c0-2.5,2-4.1,4.6-4.1
				c1.5,0,2.6,0.4,3.7,1.1l-0.8,1.1c-0.7-0.5-1.7-1-2.8-1c-1.9,0-3.1,1.2-3.1,2.7C227.5,28.2,228.6,29.4,230.6,29.4z"/>
			<path d="M237.5,28.7l-0.9,1.9H235l3.8-7.9h1.5l3.9,7.9h-1.6l-0.9-1.9H237.5z M238.1,27.4h3l-1.5-3.2L238.1,27.4z"/>
			<path d="M251.2,24.5c-1-0.4-2.1-0.7-3.1-0.7c-1.4,0-2.1,0.3-2.1,0.9c0,1.6,6.3,0.3,6.3,3.6c0,1.4-1.3,2.5-3.9,2.5
				c-1.5,0-2.7-0.4-4.1-1.1l0.5-1.2c1.2,0.7,2.3,1,3.5,1c1.5,0,2.4-0.4,2.4-1.1c0-1.7-6.3-0.4-6.3-3.5c0-1.3,1.3-2.3,3.6-2.3
				c1.4,0,2.6,0.3,3.7,0.9L251.2,24.5z"/>
			<path d="M254,30.5v-7.9h1.5v7.9H254z"/>
			<path d="M257.6,30.5v-7.9h1.5v3.7l4-3.7h1.8l-4.1,3.8l4.2,4.1h-1.9l-4-3.8v3.8H257.6z"/>
			<path d="M267.9,28.7l-0.9,1.9h-1.6l3.8-7.9h1.5l3.9,7.9H273l-0.9-1.9H267.9z M268.5,27.4h3l-1.5-3.2L268.5,27.4z"/>
			<path d="M279.5,27.7h-2.4v2.9h-1.5v-7.9h5c1.7,0,2.7,1.1,2.7,2.5c0,1.4-1.1,2.2-2.3,2.4l2.4,2.9h-1.9L279.5,27.7z M280.5,26.4
				c0.9,0,1.4-0.4,1.4-1.1c0-0.7-0.4-1.2-1.2-1.2h-3.6v2.4L280.5,26.4L280.5,26.4z"/>
			<path d="M286.5,28.7l-0.9,1.9h-1.6l3.8-7.9h1.5l3.9,7.9h-1.6l-0.9-1.9H286.5z M287.2,27.4h3l-1.5-3.2L287.2,27.4z"/>
		</g>
	</g>
</g>
</svg>
